<svg width="42" height="44" viewBox="0 0 42 44" fill="none" xmlns="http://www.w3.org/2000/svg">
<path d="M41.619 20.35C41.8681 10.35 34.2967 1.7 24.6831 0.3L23.7865 8C25.7076 8.49333 27.4285 9.46937 28.8411 10.892C29.0046 11.0562 29.1628 11.2256 29.3156 11.4C31.4076 13.7 32.6031 16.75 32.6529 19.9V37.3C38.3813 33.55 41.7685 27.15 41.619 20.35Z" fill="#0D70F2"/>
<path fill-rule="evenodd" clip-rule="evenodd" d="M12.7781 11.4C10.686 13.7 9.49053 16.65 9.44071 19.75V37.35C9.42408 37.3391 9.40748 37.3282 9.3909 37.3173V19.75C9.49053 16.65 10.6362 13.7 12.7283 11.4C14.1728 9.75 16.0158 8.6 18.1079 8.05L17.311 0.3L18.1577 8.05C16.0657 8.65 14.1728 9.8 12.7781 11.4Z" fill="#0D70F2"/>
<path d="M17.311 0.3C13.1766 0.9 9.34109 2.85 6.35239 5.85C-1.61746 13.15 -1.61746 27.55 6.35239 34.85C7.28507 35.7369 8.26613 36.5753 9.3909 37.3173V19.75C9.49053 16.65 10.6362 13.7 12.7283 11.4C14.1728 9.75 16.0158 8.6 18.1079 8.05L17.311 0.3Z" fill="#0D70F2"/>
<path d="M24.1351 23.35C26.8748 23 29.7639 20.1 29.9133 19.25C28.897 19.7291 27.757 20.0411 26.6683 20.2433C26.5186 20.2712 26.3699 20.2969 26.2226 20.3207C26.094 20.3415 25.9665 20.3608 25.8404 20.3788C25.7636 20.3897 25.6873 20.4002 25.6116 20.4101C25.3844 20.44 25.1625 20.4655 24.9477 20.4872C23.7588 20.6076 22.7875 20.6129 22.3472 20.6065C22.1892 20.6042 22.0995 20.6006 22.0929 20.6V29.35L21.0468 30.45L20.0506 29.35V20.6C20.0506 20.6 15.4679 20.8 12.1804 19.3C12.3298 20.15 15.2189 23.05 17.9585 23.4V40.5084C19.9982 40.7722 22.0965 40.7635 24.1351 40.4837V23.35Z" fill="#0D70F2"/>
<path fill-rule="evenodd" clip-rule="evenodd" d="M9.3909 37.3173V19.75C9.49053 16.65 10.6362 13.7 12.7283 11.4C14.1728 9.75 16.0158 8.6 18.1079 8.05L17.311 0.3L18.1577 8.05C16.0657 8.65 14.1728 9.8 12.7781 11.4C10.686 13.7 9.49053 16.65 9.44071 19.75V37.35L9.3909 37.3173Z" fill="#0D70F2"/>
<path d="M21.0468 44L24.1351 40.75V40.4837C22.0965 40.7635 19.9982 40.7722 17.9585 40.5084V40.8L21.0468 44Z" fill="#0D70F2"/>
</svg>
